<?xml version="1.0" encoding="utf-8" standalone="no"?>
<!DOCTYPE svg PUBLIC "-//W3C//DTD SVG 1.1//EN"
  "http://www.w3.org/Graphics/SVG/1.1/DTD/svg11.dtd">
<!-- Created with matplotlib (http://matplotlib.org/) -->
<svg height="468pt" version="1.1" viewBox="0 0 612 468" width="612pt" xmlns="http://www.w3.org/2000/svg" xmlns:xlink="http://www.w3.org/1999/xlink">
 <defs>
  <style type="text/css">
*{stroke-linecap:butt;stroke-linejoin:round;}
  </style>
 </defs>
 <g id="figure_1">
  <g id="patch_1">
   <path d="M 0 468 
L 612 468 
L 612 0 
L 0 0 
z
" style="fill:#ffffff;"/>
  </g>
  <g id="axes_1">
   <g id="patch_2">
    <path d="M 57.8 410.992 
L 598.68 410.992 
L 598.68 29.76 
L 57.8 29.76 
z
" style="fill:#ffffff;"/>
   </g>
   <g id="PolyCollection_1">
    <path clip-path="url(#p146a803275)" d="M 57.8 265.387942 
L 57.8 147.623131 
L 135.068571 167.405933 
L 212.337143 187.442063 
L 289.605714 199.780667 
L 366.874286 208.574878 
L 444.142857 213.318122 
L 521.411429 215.956717 
L 598.68 217.137579 
L 598.68 219.493328 
L 598.68 219.493328 
L 521.411429 221.515317 
L 444.142857 224.458044 
L 366.874286 228.132956 
L 289.605714 236.10947 
L 212.337143 244.057709 
L 135.068571 254.622081 
L 57.8 265.387942 
z
" style="fill:#ffa500;fill-opacity:0.25;"/>
   </g>
   <g id="matplotlib.axis_1">
    <g id="xtick_1">
     <g id="line2d_1">
      <path clip-path="url(#p146a803275)" d="M 57.8 410.992 
L 57.8 29.76 
" style="fill:none;opacity:0.5;stroke:#000000;stroke-dasharray:1.85,0.8;stroke-dashoffset:0;stroke-width:0.5;"/>
     </g>
     <g id="line2d_2">
      <defs>
       <path d="M 0 0 
L 0 3.5 
" id="m66138ae4ef" style="stroke:#000000;stroke-width:0.8;"/>
      </defs>
      <g>
       <use style="stroke:#000000;stroke-width:0.8;" x="57.8" xlink:href="#m66138ae4ef" y="410.992"/>
      </g>
     </g>
     <g id="text_1">
      <!-- $\mathdefault{10^{0}}$ -->
      <defs>
       <path d="M 12.40625 8.296875 
L 28.515625 8.296875 
L 28.515625 63.921875 
L 10.984375 60.40625 
L 10.984375 69.390625 
L 28.421875 72.90625 
L 38.28125 72.90625 
L 38.28125 8.296875 
L 54.390625 8.296875 
L 54.390625 0 
L 12.40625 0 
z
" id="DejaVuSans-31"/>
       <path d="M 31.78125 66.40625 
Q 24.171875 66.40625 20.328125 58.90625 
Q 16.5 51.421875 16.5 36.375 
Q 16.5 21.390625 20.328125 13.890625 
Q 24.171875 6.390625 31.78125 6.390625 
Q 39.453125 6.390625 43.28125 13.890625 
Q 47.125 21.390625 47.125 36.375 
Q 47.125 51.421875 43.28125 58.90625 
Q 39.453125 66.40625 31.78125 66.40625 
z
M 31.78125 74.21875 
Q 44.046875 74.21875 50.515625 64.515625 
Q 56.984375 54.828125 56.984375 36.375 
Q 56.984375 17.96875 50.515625 8.265625 
Q 44.046875 -1.421875 31.78125 -1.421875 
Q 19.53125 -1.421875 13.0625 8.265625 
Q 6.59375 17.96875 6.59375 36.375 
Q 6.59375 54.828125 13.0625 64.515625 
Q 19.53125 74.21875 31.78125 74.21875 
z
" id="DejaVuSans-30"/>
      </defs>
      <g transform="translate(45.48 428.629812)scale(0.14 -0.14)">
       <use transform="translate(0 0.765625)" xlink:href="#DejaVuSans-31"/>
       <use transform="translate(63.623047 0.765625)" xlink:href="#DejaVuSans-30"/>
       <use transform="translate(128.203125 39.046875)scale(0.7)" xlink:href="#DejaVuSans-30"/>
      </g>
     </g>
    </g>
    <g id="xtick_2">
     <g id="line2d_3">
      <path clip-path="url(#p146a803275)" d="M 314.480638 410.992 
L 314.480638 29.76 
" style="fill:none;opacity:0.5;stroke:#000000;stroke-dasharray:1.85,0.8;stroke-dashoffset:0;stroke-width:0.5;"/>
     </g>
     <g id="line2d_4">
      <g>
       <use style="stroke:#000000;stroke-width:0.8;" x="314.480638" xlink:href="#m66138ae4ef" y="410.992"/>
      </g>
     </g>
     <g id="text_2">
      <!-- $\mathdefault{10^{1}}$ -->
      <g transform="translate(302.160638 428.629812)scale(0.14 -0.14)">
       <use transform="translate(0 0.684375)" xlink:href="#DejaVuSans-31"/>
       <use transform="translate(63.623047 0.684375)" xlink:href="#DejaVuSans-30"/>
       <use transform="translate(128.203125 38.965625)scale(0.7)" xlink:href="#DejaVuSans-31"/>
      </g>
     </g>
    </g>
    <g id="xtick_3">
     <g id="line2d_5">
      <path clip-path="url(#p146a803275)" d="M 571.161277 410.992 
L 571.161277 29.76 
" style="fill:none;opacity:0.5;stroke:#000000;stroke-dasharray:1.85,0.8;stroke-dashoffset:0;stroke-width:0.5;"/>
     </g>
     <g id="line2d_6">
      <g>
       <use style="stroke:#000000;stroke-width:0.8;" x="571.161277" xlink:href="#m66138ae4ef" y="410.992"/>
      </g>
     </g>
     <g id="text_3">
      <!-- $\mathdefault{10^{2}}$ -->
      <defs>
       <path d="M 19.1875 8.296875 
L 53.609375 8.296875 
L 53.609375 0 
L 7.328125 0 
L 7.328125 8.296875 
Q 12.9375 14.109375 22.625 23.890625 
Q 32.328125 33.6875 34.8125 36.53125 
Q 39.546875 41.84375 41.421875 45.53125 
Q 43.3125 49.21875 43.3125 52.78125 
Q 43.3125 58.59375 39.234375 62.25 
Q 35.15625 65.921875 28.609375 65.921875 
Q 23.96875 65.921875 18.8125 64.3125 
Q 13.671875 62.703125 7.8125 59.421875 
L 7.8125 69.390625 
Q 13.765625 71.78125 18.9375 73 
Q 24.125 74.21875 28.421875 74.21875 
Q 39.75 74.21875 46.484375 68.546875 
Q 53.21875 62.890625 53.21875 53.421875 
Q 53.21875 48.921875 51.53125 44.890625 
Q 49.859375 40.875 45.40625 35.40625 
Q 44.1875 33.984375 37.640625 27.21875 
Q 31.109375 20.453125 19.1875 8.296875 
z
" id="DejaVuSans-32"/>
      </defs>
      <g transform="translate(558.841277 428.629812)scale(0.14 -0.14)">
       <use transform="translate(0 0.765625)" xlink:href="#DejaVuSans-31"/>
       <use transform="translate(63.623047 0.765625)" xlink:href="#DejaVuSans-30"/>
       <use transform="translate(128.203125 39.046875)scale(0.7)" xlink:href="#DejaVuSans-32"/>
      </g>
     </g>
    </g>
    <g id="xtick_4">
     <g id="line2d_7">
      <defs>
       <path d="M 0 0 
L 0 2 
" id="m1ad56d962d" style="stroke:#000000;stroke-width:0.6;"/>
      </defs>
      <g>
       <use style="stroke:#000000;stroke-width:0.6;" x="135.068571" xlink:href="#m1ad56d962d" y="410.992"/>
      </g>
     </g>
    </g>
    <g id="xtick_5">
     <g id="line2d_8">
      <g>
       <use style="stroke:#000000;stroke-width:0.6;" x="180.267788" xlink:href="#m1ad56d962d" y="410.992"/>
      </g>
     </g>
    </g>
    <g id="xtick_6">
     <g id="line2d_9">
      <g>
       <use style="stroke:#000000;stroke-width:0.6;" x="212.337143" xlink:href="#m1ad56d962d" y="410.992"/>
      </g>
     </g>
    </g>
    <g id="xtick_7">
     <g id="line2d_10">
      <g>
       <use style="stroke:#000000;stroke-width:0.6;" x="237.212067" xlink:href="#m1ad56d962d" y="410.992"/>
      </g>
     </g>
    </g>
    <g id="xtick_8">
     <g id="line2d_11">
      <g>
       <use style="stroke:#000000;stroke-width:0.6;" x="257.53636" xlink:href="#m1ad56d962d" y="410.992"/>
      </g>
     </g>
    </g>
    <g id="xtick_9">
     <g id="line2d_12">
      <g>
       <use style="stroke:#000000;stroke-width:0.6;" x="274.720304" xlink:href="#m1ad56d962d" y="410.992"/>
      </g>
     </g>
    </g>
    <g id="xtick_10">
     <g id="line2d_13">
      <g>
       <use style="stroke:#000000;stroke-width:0.6;" x="289.605714" xlink:href="#m1ad56d962d" y="410.992"/>
      </g>
     </g>
    </g>
    <g id="xtick_11">
     <g id="line2d_14">
      <g>
       <use style="stroke:#000000;stroke-width:0.6;" x="302.735576" xlink:href="#m1ad56d962d" y="410.992"/>
      </g>
     </g>
    </g>
    <g id="xtick_12">
     <g id="line2d_15">
      <g>
       <use style="stroke:#000000;stroke-width:0.6;" x="391.74921" xlink:href="#m1ad56d962d" y="410.992"/>
      </g>
     </g>
    </g>
    <g id="xtick_13">
     <g id="line2d_16">
      <g>
       <use style="stroke:#000000;stroke-width:0.6;" x="436.948426" xlink:href="#m1ad56d962d" y="410.992"/>
      </g>
     </g>
    </g>
    <g id="xtick_14">
     <g id="line2d_17">
      <g>
       <use style="stroke:#000000;stroke-width:0.6;" x="469.017781" xlink:href="#m1ad56d962d" y="410.992"/>
      </g>
     </g>
    </g>
    <g id="xtick_15">
     <g id="line2d_18">
      <g>
       <use style="stroke:#000000;stroke-width:0.6;" x="493.892705" xlink:href="#m1ad56d962d" y="410.992"/>
      </g>
     </g>
    </g>
    <g id="xtick_16">
     <g id="line2d_19">
      <g>
       <use style="stroke:#000000;stroke-width:0.6;" x="514.216998" xlink:href="#m1ad56d962d" y="410.992"/>
      </g>
     </g>
    </g>
    <g id="xtick_17">
     <g id="line2d_20">
      <g>
       <use style="stroke:#000000;stroke-width:0.6;" x="531.400943" xlink:href="#m1ad56d962d" y="410.992"/>
      </g>
     </g>
    </g>
    <g id="xtick_18">
     <g id="line2d_21">
      <g>
       <use style="stroke:#000000;stroke-width:0.6;" x="546.286353" xlink:href="#m1ad56d962d" y="410.992"/>
      </g>
     </g>
    </g>
    <g id="xtick_19">
     <g id="line2d_22">
      <g>
       <use style="stroke:#000000;stroke-width:0.6;" x="559.416215" xlink:href="#m1ad56d962d" y="410.992"/>
      </g>
     </g>
    </g>
    <g id="text_4">
     <!-- Sample size $n$ -->
     <defs>
      <path d="M 53.515625 70.515625 
L 53.515625 60.890625 
Q 47.90625 63.578125 42.921875 64.890625 
Q 37.9375 66.21875 33.296875 66.21875 
Q 25.25 66.21875 20.875 63.09375 
Q 16.5 59.96875 16.5 54.203125 
Q 16.5 49.359375 19.40625 46.890625 
Q 22.3125 44.4375 30.421875 42.921875 
L 36.375 41.703125 
Q 47.40625 39.59375 52.65625 34.296875 
Q 57.90625 29 57.90625 20.125 
Q 57.90625 9.515625 50.796875 4.046875 
Q 43.703125 -1.421875 29.984375 -1.421875 
Q 24.8125 -1.421875 18.96875 -0.25 
Q 13.140625 0.921875 6.890625 3.21875 
L 6.890625 13.375 
Q 12.890625 10.015625 18.65625 8.296875 
Q 24.421875 6.59375 29.984375 6.59375 
Q 38.421875 6.59375 43.015625 9.90625 
Q 47.609375 13.234375 47.609375 19.390625 
Q 47.609375 24.75 44.3125 27.78125 
Q 41.015625 30.8125 33.5 32.328125 
L 27.484375 33.5 
Q 16.453125 35.6875 11.515625 40.375 
Q 6.59375 45.0625 6.59375 53.421875 
Q 6.59375 63.09375 13.40625 68.65625 
Q 20.21875 74.21875 32.171875 74.21875 
Q 37.3125 74.21875 42.625 73.28125 
Q 47.953125 72.359375 53.515625 70.515625 
z
" id="DejaVuSans-53"/>
      <path d="M 34.28125 27.484375 
Q 23.390625 27.484375 19.1875 25 
Q 14.984375 22.515625 14.984375 16.5 
Q 14.984375 11.71875 18.140625 8.90625 
Q 21.296875 6.109375 26.703125 6.109375 
Q 34.1875 6.109375 38.703125 11.40625 
Q 43.21875 16.703125 43.21875 25.484375 
L 43.21875 27.484375 
z
M 52.203125 31.203125 
L 52.203125 0 
L 43.21875 0 
L 43.21875 8.296875 
Q 40.140625 3.328125 35.546875 0.953125 
Q 30.953125 -1.421875 24.3125 -1.421875 
Q 15.921875 -1.421875 10.953125 3.296875 
Q 6 8.015625 6 15.921875 
Q 6 25.140625 12.171875 29.828125 
Q 18.359375 34.515625 30.609375 34.515625 
L 43.21875 34.515625 
L 43.21875 35.40625 
Q 43.21875 41.609375 39.140625 45 
Q 35.0625 48.390625 27.6875 48.390625 
Q 23 48.390625 18.546875 47.265625 
Q 14.109375 46.140625 10.015625 43.890625 
L 10.015625 52.203125 
Q 14.9375 54.109375 19.578125 55.046875 
Q 24.21875 56 28.609375 56 
Q 40.484375 56 46.34375 49.84375 
Q 52.203125 43.703125 52.203125 31.203125 
z
" id="DejaVuSans-61"/>
      <path d="M 52 44.1875 
Q 55.375 50.25 60.0625 53.125 
Q 64.75 56 71.09375 56 
Q 79.640625 56 84.28125 50.015625 
Q 88.921875 44.046875 88.921875 33.015625 
L 88.921875 0 
L 79.890625 0 
L 79.890625 32.71875 
Q 79.890625 40.578125 77.09375 44.375 
Q 74.3125 48.1875 68.609375 48.1875 
Q 61.625 48.1875 57.5625 43.546875 
Q 53.515625 38.921875 53.515625 30.90625 
L 53.515625 0 
L 44.484375 0 
L 44.484375 32.71875 
Q 44.484375 40.625 41.703125 44.40625 
Q 38.921875 48.1875 33.109375 48.1875 
Q 26.21875 48.1875 22.15625 43.53125 
Q 18.109375 38.875 18.109375 30.90625 
L 18.109375 0 
L 9.078125 0 
L 9.078125 54.6875 
L 18.109375 54.6875 
L 18.109375 46.1875 
Q 21.1875 51.21875 25.484375 53.609375 
Q 29.78125 56 35.6875 56 
Q 41.65625 56 45.828125 52.96875 
Q 50 49.953125 52 44.1875 
z
" id="DejaVuSans-6d"/>
      <path d="M 18.109375 8.203125 
L 18.109375 -20.796875 
L 9.078125 -20.796875 
L 9.078125 54.6875 
L 18.109375 54.6875 
L 18.109375 46.390625 
Q 20.953125 51.265625 25.265625 53.625 
Q 29.59375 56 35.59375 56 
Q 45.5625 56 51.78125 48.09375 
Q 58.015625 40.1875 58.015625 27.296875 
Q 58.015625 14.40625 51.78125 6.484375 
Q 45.5625 -1.421875 35.59375 -1.421875 
Q 29.59375 -1.421875 25.265625 0.953125 
Q 20.953125 3.328125 18.109375 8.203125 
z
M 48.6875 27.296875 
Q 48.6875 37.203125 44.609375 42.84375 
Q 40.53125 48.484375 33.40625 48.484375 
Q 26.265625 48.484375 22.1875 42.84375 
Q 18.109375 37.203125 18.109375 27.296875 
Q 18.109375 17.390625 22.1875 11.75 
Q 26.265625 6.109375 33.40625 6.109375 
Q 40.53125 6.109375 44.609375 11.75 
Q 48.6875 17.390625 48.6875 27.296875 
z
" id="DejaVuSans-70"/>
      <path d="M 9.421875 75.984375 
L 18.40625 75.984375 
L 18.40625 0 
L 9.421875 0 
z
" id="DejaVuSans-6c"/>
      <path d="M 56.203125 29.59375 
L 56.203125 25.203125 
L 14.890625 25.203125 
Q 15.484375 15.921875 20.484375 11.0625 
Q 25.484375 6.203125 34.421875 6.203125 
Q 39.59375 6.203125 44.453125 7.46875 
Q 49.3125 8.734375 54.109375 11.28125 
L 54.109375 2.78125 
Q 49.265625 0.734375 44.1875 -0.34375 
Q 39.109375 -1.421875 33.890625 -1.421875 
Q 20.796875 -1.421875 13.15625 6.1875 
Q 5.515625 13.8125 5.515625 26.8125 
Q 5.515625 40.234375 12.765625 48.109375 
Q 20.015625 56 32.328125 56 
Q 43.359375 56 49.78125 48.890625 
Q 56.203125 41.796875 56.203125 29.59375 
z
M 47.21875 32.234375 
Q 47.125 39.59375 43.09375 43.984375 
Q 39.0625 48.390625 32.421875 48.390625 
Q 24.90625 48.390625 20.390625 44.140625 
Q 15.875 39.890625 15.1875 32.171875 
z
" id="DejaVuSans-65"/>
      <path id="DejaVuSans-20"/>
      <path d="M 44.28125 53.078125 
L 44.28125 44.578125 
Q 40.484375 46.53125 36.375 47.5 
Q 32.28125 48.484375 27.875 48.484375 
Q 21.1875 48.484375 17.84375 46.4375 
Q 14.5 44.390625 14.5 40.28125 
Q 14.5 37.15625 16.890625 35.375 
Q 19.28125 33.59375 26.515625 31.984375 
L 29.59375 31.296875 
Q 39.15625 29.25 43.1875 25.515625 
Q 47.21875 21.78125 47.21875 15.09375 
Q 47.21875 7.46875 41.1875 3.015625 
Q 35.15625 -1.421875 24.609375 -1.421875 
Q 20.21875 -1.421875 15.453125 -0.5625 
Q 10.6875 0.296875 5.421875 2 
L 5.421875 11.28125 
Q 10.40625 8.6875 15.234375 7.390625 
Q 20.0625 6.109375 24.8125 6.109375 
Q 31.15625 6.109375 34.5625 8.28125 
Q 37.984375 10.453125 37.984375 14.40625 
Q 37.984375 18.0625 35.515625 20.015625 
Q 33.0625 21.96875 24.703125 23.78125 
L 21.578125 24.515625 
Q 13.234375 26.265625 9.515625 29.90625 
Q 5.8125 33.546875 5.8125 39.890625 
Q 5.8125 47.609375 11.28125 51.796875 
Q 16.75 56 26.8125 56 
Q 31.78125 56 36.171875 55.265625 
Q 40.578125 54.546875 44.28125 53.078125 
z
" id="DejaVuSans-73"/>
      <path d="M 9.421875 54.6875 
L 18.40625 54.6875 
L 18.40625 0 
L 9.421875 0 
z
M 9.421875 75.984375 
L 18.40625 75.984375 
L 18.40625 64.59375 
L 9.421875 64.59375 
z
" id="DejaVuSans-69"/>
      <path d="M 5.515625 54.6875 
L 48.1875 54.6875 
L 48.1875 46.484375 
L 14.40625 7.171875 
L 48.1875 7.171875 
L 48.1875 0 
L 4.296875 0 
L 4.296875 8.203125 
L 38.09375 47.515625 
L 5.515625 47.515625 
z
" id="DejaVuSans-7a"/>
      <path d="M 55.71875 33.015625 
L 49.3125 0 
L 40.28125 0 
L 46.6875 32.671875 
Q 47.125 34.96875 47.359375 36.71875 
Q 47.609375 38.484375 47.609375 39.5 
Q 47.609375 43.609375 45.015625 45.890625 
Q 42.4375 48.1875 37.796875 48.1875 
Q 30.5625 48.1875 25.34375 43.375 
Q 20.125 38.578125 18.5 30.328125 
L 12.5 0 
L 3.515625 0 
L 14.109375 54.6875 
L 23.09375 54.6875 
L 21.296875 46.09375 
Q 25.046875 50.828125 30.3125 53.40625 
Q 35.59375 56 41.40625 56 
Q 48.640625 56 52.609375 52.09375 
Q 56.59375 48.1875 56.59375 41.109375 
Q 56.59375 39.359375 56.375 37.359375 
Q 56.15625 35.359375 55.71875 33.015625 
z
" id="DejaVuSans-Oblique-6e"/>
     </defs>
     <g transform="translate(272.56 447.701375)scale(0.16 -0.16)">
      <use transform="translate(0 0.015625)" xlink:href="#DejaVuSans-53"/>
      <use transform="translate(63.476562 0.015625)" xlink:href="#DejaVuSans-61"/>
      <use transform="translate(124.755859 0.015625)" xlink:href="#DejaVuSans-6d"/>
      <use transform="translate(222.167969 0.015625)" xlink:href="#DejaVuSans-70"/>
      <use transform="translate(285.644531 0.015625)" xlink:href="#DejaVuSans-6c"/>
      <use transform="translate(313.427734 0.015625)" xlink:href="#DejaVuSans-65"/>
      <use transform="translate(374.951172 0.015625)" xlink:href="#DejaVuSans-20"/>
      <use transform="translate(406.738281 0.015625)" xlink:href="#DejaVuSans-73"/>
      <use transform="translate(458.837891 0.015625)" xlink:href="#DejaVuSans-69"/>
      <use transform="translate(486.621094 0.015625)" xlink:href="#DejaVuSans-7a"/>
      <use transform="translate(539.111328 0.015625)" xlink:href="#DejaVuSans-65"/>
      <use transform="translate(600.634766 0.015625)" xlink:href="#DejaVuSans-20"/>
      <use transform="translate(632.421875 0.015625)" xlink:href="#DejaVuSans-Oblique-6e"/>
     </g>
    </g>
   </g>
   <g id="matplotlib.axis_2">
    <g id="ytick_1">
     <g id="line2d_23">
      <path clip-path="url(#p146a803275)" d="M 57.8 365.270351 
L 598.68 365.270351 
" style="fill:none;opacity:0.5;stroke:#000000;stroke-dasharray:1.85,0.8;stroke-dashoffset:0;stroke-width:0.5;"/>
     </g>
     <g id="line2d_24">
      <defs>
       <path d="M 0 0 
L -3.5 0 
" id="mf6a33e0fc2" style="stroke:#000000;stroke-width:0.8;"/>
      </defs>
      <g>
       <use style="stroke:#000000;stroke-width:0.8;" x="57.8" xlink:href="#mf6a33e0fc2" y="365.270351"/>
      </g>
     </g>
     <g id="text_5">
      <!-- 1.0 -->
      <defs>
       <path d="M 10.6875 12.40625 
L 21 12.40625 
L 21 0 
L 10.6875 0 
z
" id="DejaVuSans-2e"/>
      </defs>
      <g transform="translate(28.535625 370.589258)scale(0.14 -0.14)">
       <use xlink:href="#DejaVuSans-31"/>
       <use x="63.623047" xlink:href="#DejaVuSans-2e"/>
       <use x="95.410156" xlink:href="#DejaVuSans-30"/>
      </g>
     </g>
    </g>
    <g id="ytick_2">
     <g id="line2d_25">
      <path clip-path="url(#p146a803275)" d="M 57.8 295.217533 
L 598.68 295.217533 
" style="fill:none;opacity:0.5;stroke:#000000;stroke-dasharray:1.85,0.8;stroke-dashoffset:0;stroke-width:0.5;"/>
     </g>
     <g id="line2d_26">
      <g>
       <use style="stroke:#000000;stroke-width:0.8;" x="57.8" xlink:href="#mf6a33e0fc2" y="295.217533"/>
      </g>
     </g>
     <g id="text_6">
      <!-- 1.2 -->
      <g transform="translate(28.535625 300.536439)scale(0.14 -0.14)">
       <use xlink:href="#DejaVuSans-31"/>
       <use x="63.623047" xlink:href="#DejaVuSans-2e"/>
       <use x="95.410156" xlink:href="#DejaVuSans-32"/>
      </g>
     </g>
    </g>
    <g id="ytick_3">
     <g id="line2d_27">
      <path clip-path="url(#p146a803275)" d="M 57.8 225.164714 
L 598.68 225.164714 
" style="fill:none;opacity:0.5;stroke:#000000;stroke-dasharray:1.85,0.8;stroke-dashoffset:0;stroke-width:0.5;"/>
     </g>
     <g id="line2d_28">
      <g>
       <use style="stroke:#000000;stroke-width:0.8;" x="57.8" xlink:href="#mf6a33e0fc2" y="225.164714"/>
      </g>
     </g>
     <g id="text_7">
      <!-- 1.4 -->
      <defs>
       <path d="M 37.796875 64.3125 
L 12.890625 25.390625 
L 37.796875 25.390625 
z
M 35.203125 72.90625 
L 47.609375 72.90625 
L 47.609375 25.390625 
L 58.015625 25.390625 
L 58.015625 17.1875 
L 47.609375 17.1875 
L 47.609375 0 
L 37.796875 0 
L 37.796875 17.1875 
L 4.890625 17.1875 
L 4.890625 26.703125 
z
" id="DejaVuSans-34"/>
      </defs>
      <g transform="translate(28.535625 230.48362)scale(0.14 -0.14)">
       <use xlink:href="#DejaVuSans-31"/>
       <use x="63.623047" xlink:href="#DejaVuSans-2e"/>
       <use x="95.410156" xlink:href="#DejaVuSans-34"/>
      </g>
     </g>
    </g>
    <g id="ytick_4">
     <g id="line2d_29">
      <path clip-path="url(#p146a803275)" d="M 57.8 155.111895 
L 598.68 155.111895 
" style="fill:none;opacity:0.5;stroke:#000000;stroke-dasharray:1.85,0.8;stroke-dashoffset:0;stroke-width:0.5;"/>
     </g>
     <g id="line2d_30">
      <g>
       <use style="stroke:#000000;stroke-width:0.8;" x="57.8" xlink:href="#mf6a33e0fc2" y="155.111895"/>
      </g>
     </g>
     <g id="text_8">
      <!-- 1.6 -->
      <defs>
       <path d="M 33.015625 40.375 
Q 26.375 40.375 22.484375 35.828125 
Q 18.609375 31.296875 18.609375 23.390625 
Q 18.609375 15.53125 22.484375 10.953125 
Q 26.375 6.390625 33.015625 6.390625 
Q 39.65625 6.390625 43.53125 10.953125 
Q 47.40625 15.53125 47.40625 23.390625 
Q 47.40625 31.296875 43.53125 35.828125 
Q 39.65625 40.375 33.015625 40.375 
z
M 52.59375 71.296875 
L 52.59375 62.3125 
Q 48.875 64.0625 45.09375 64.984375 
Q 41.3125 65.921875 37.59375 65.921875 
Q 27.828125 65.921875 22.671875 59.328125 
Q 17.53125 52.734375 16.796875 39.40625 
Q 19.671875 43.65625 24.015625 45.921875 
Q 28.375 48.1875 33.59375 48.1875 
Q 44.578125 48.1875 50.953125 41.515625 
Q 57.328125 34.859375 57.328125 23.390625 
Q 57.328125 12.15625 50.6875 5.359375 
Q 44.046875 -1.421875 33.015625 -1.421875 
Q 20.359375 -1.421875 13.671875 8.265625 
Q 6.984375 17.96875 6.984375 36.375 
Q 6.984375 53.65625 15.1875 63.9375 
Q 23.390625 74.21875 37.203125 74.21875 
Q 40.921875 74.21875 44.703125 73.484375 
Q 48.484375 72.75 52.59375 71.296875 
z
" id="DejaVuSans-36"/>
      </defs>
      <g transform="translate(28.535625 160.430801)scale(0.14 -0.14)">
       <use xlink:href="#DejaVuSans-31"/>
       <use x="63.623047" xlink:href="#DejaVuSans-2e"/>
       <use x="95.410156" xlink:href="#DejaVuSans-36"/>
      </g>
     </g>
    </g>
    <g id="ytick_5">
     <g id="line2d_31">
      <path clip-path="url(#p146a803275)" d="M 57.8 85.059076 
L 598.68 85.059076 
" style="fill:none;opacity:0.5;stroke:#000000;stroke-dasharray:1.85,0.8;stroke-dashoffset:0;stroke-width:0.5;"/>
     </g>
     <g id="line2d_32">
      <g>
       <use style="stroke:#000000;stroke-width:0.8;" x="57.8" xlink:href="#mf6a33e0fc2" y="85.059076"/>
      </g>
     </g>
     <g id="text_9">
      <!-- 1.8 -->
      <defs>
       <path d="M 31.78125 34.625 
Q 24.75 34.625 20.71875 30.859375 
Q 16.703125 27.09375 16.703125 20.515625 
Q 16.703125 13.921875 20.71875 10.15625 
Q 24.75 6.390625 31.78125 6.390625 
Q 38.8125 6.390625 42.859375 10.171875 
Q 46.921875 13.96875 46.921875 20.515625 
Q 46.921875 27.09375 42.890625 30.859375 
Q 38.875 34.625 31.78125 34.625 
z
M 21.921875 38.8125 
Q 15.578125 40.375 12.03125 44.71875 
Q 8.5 49.078125 8.5 55.328125 
Q 8.5 64.0625 14.71875 69.140625 
Q 20.953125 74.21875 31.78125 74.21875 
Q 42.671875 74.21875 48.875 69.140625 
Q 55.078125 64.0625 55.078125 55.328125 
Q 55.078125 49.078125 51.53125 44.71875 
Q 48 40.375 41.703125 38.8125 
Q 48.828125 37.15625 52.796875 32.3125 
Q 56.78125 27.484375 56.78125 20.515625 
Q 56.78125 9.90625 50.3125 4.234375 
Q 43.84375 -1.421875 31.78125 -1.421875 
Q 19.734375 -1.421875 13.25 4.234375 
Q 6.78125 9.90625 6.78125 20.515625 
Q 6.78125 27.484375 10.78125 32.3125 
Q 14.796875 37.15625 21.921875 38.8125 
z
M 18.3125 54.390625 
Q 18.3125 48.734375 21.84375 45.5625 
Q 25.390625 42.390625 31.78125 42.390625 
Q 38.140625 42.390625 41.71875 45.5625 
Q 45.3125 48.734375 45.3125 54.390625 
Q 45.3125 60.0625 41.71875 63.234375 
Q 38.140625 66.40625 31.78125 66.40625 
Q 25.390625 66.40625 21.84375 63.234375 
Q 18.3125 60.0625 18.3125 54.390625 
z
" id="DejaVuSans-38"/>
      </defs>
      <g transform="translate(28.535625 90.377982)scale(0.14 -0.14)">
       <use xlink:href="#DejaVuSans-31"/>
       <use x="63.623047" xlink:href="#DejaVuSans-2e"/>
       <use x="95.410156" xlink:href="#DejaVuSans-38"/>
      </g>
     </g>
    </g>
    <g id="text_10">
     <!-- Negative predictive log-likelihood -->
     <defs>
      <path d="M 9.8125 72.90625 
L 23.09375 72.90625 
L 55.421875 11.921875 
L 55.421875 72.90625 
L 64.984375 72.90625 
L 64.984375 0 
L 51.703125 0 
L 19.390625 60.984375 
L 19.390625 0 
L 9.8125 0 
z
" id="DejaVuSans-4e"/>
      <path d="M 45.40625 27.984375 
Q 45.40625 37.75 41.375 43.109375 
Q 37.359375 48.484375 30.078125 48.484375 
Q 22.859375 48.484375 18.828125 43.109375 
Q 14.796875 37.75 14.796875 27.984375 
Q 14.796875 18.265625 18.828125 12.890625 
Q 22.859375 7.515625 30.078125 7.515625 
Q 37.359375 7.515625 41.375 12.890625 
Q 45.40625 18.265625 45.40625 27.984375 
z
M 54.390625 6.78125 
Q 54.390625 -7.171875 48.1875 -13.984375 
Q 42 -20.796875 29.203125 -20.796875 
Q 24.46875 -20.796875 20.265625 -20.09375 
Q 16.0625 -19.390625 12.109375 -17.921875 
L 12.109375 -9.1875 
Q 16.0625 -11.328125 19.921875 -12.34375 
Q 23.78125 -13.375 27.78125 -13.375 
Q 36.625 -13.375 41.015625 -8.765625 
Q 45.40625 -4.15625 45.40625 5.171875 
L 45.40625 9.625 
Q 42.625 4.78125 38.28125 2.390625 
Q 33.9375 0 27.875 0 
Q 17.828125 0 11.671875 7.65625 
Q 5.515625 15.328125 5.515625 27.984375 
Q 5.515625 40.671875 11.671875 48.328125 
Q 17.828125 56 27.875 56 
Q 33.9375 56 38.28125 53.609375 
Q 42.625 51.21875 45.40625 46.390625 
L 45.40625 54.6875 
L 54.390625 54.6875 
z
" id="DejaVuSans-67"/>
      <path d="M 18.3125 70.21875 
L 18.3125 54.6875 
L 36.8125 54.6875 
L 36.8125 47.703125 
L 18.3125 47.703125 
L 18.3125 18.015625 
Q 18.3125 11.328125 20.140625 9.421875 
Q 21.96875 7.515625 27.59375 7.515625 
L 36.8125 7.515625 
L 36.8125 0 
L 27.59375 0 
Q 17.1875 0 13.234375 3.875 
Q 9.28125 7.765625 9.28125 18.015625 
L 9.28125 47.703125 
L 2.6875 47.703125 
L 2.6875 54.6875 
L 9.28125 54.6875 
L 9.28125 70.21875 
z
" id="DejaVuSans-74"/>
      <path d="M 2.984375 54.6875 
L 12.5 54.6875 
L 29.59375 8.796875 
L 46.6875 54.6875 
L 56.203125 54.6875 
L 35.6875 0 
L 23.484375 0 
z
" id="DejaVuSans-76"/>
      <path d="M 41.109375 46.296875 
Q 39.59375 47.171875 37.8125 47.578125 
Q 36.03125 48 33.890625 48 
Q 26.265625 48 22.1875 43.046875 
Q 18.109375 38.09375 18.109375 28.8125 
L 18.109375 0 
L 9.078125 0 
L 9.078125 54.6875 
L 18.109375 54.6875 
L 18.109375 46.1875 
Q 20.953125 51.171875 25.484375 53.578125 
Q 30.03125 56 36.53125 56 
Q 37.453125 56 38.578125 55.875 
Q 39.703125 55.765625 41.0625 55.515625 
z
" id="DejaVuSans-72"/>
      <path d="M 45.40625 46.390625 
L 45.40625 75.984375 
L 54.390625 75.984375 
L 54.390625 0 
L 45.40625 0 
L 45.40625 8.203125 
Q 42.578125 3.328125 38.25 0.953125 
Q 33.9375 -1.421875 27.875 -1.421875 
Q 17.96875 -1.421875 11.734375 6.484375 
Q 5.515625 14.40625 5.515625 27.296875 
Q 5.515625 40.1875 11.734375 48.09375 
Q 17.96875 56 27.875 56 
Q 33.9375 56 38.25 53.625 
Q 42.578125 51.265625 45.40625 46.390625 
z
M 14.796875 27.296875 
Q 14.796875 17.390625 18.875 11.75 
Q 22.953125 6.109375 30.078125 6.109375 
Q 37.203125 6.109375 41.296875 11.75 
Q 45.40625 17.390625 45.40625 27.296875 
Q 45.40625 37.203125 41.296875 42.84375 
Q 37.203125 48.484375 30.078125 48.484375 
Q 22.953125 48.484375 18.875 42.84375 
Q 14.796875 37.203125 14.796875 27.296875 
z
" id="DejaVuSans-64"/>
      <path d="M 48.78125 52.59375 
L 48.78125 44.1875 
Q 44.96875 46.296875 41.140625 47.34375 
Q 37.3125 48.390625 33.40625 48.390625 
Q 24.65625 48.390625 19.8125 42.84375 
Q 14.984375 37.3125 14.984375 27.296875 
Q 14.984375 17.28125 19.8125 11.734375 
Q 24.65625 6.203125 33.40625 6.203125 
Q 37.3125 6.203125 41.140625 7.25 
Q 44.96875 8.296875 48.78125 10.40625 
L 48.78125 2.09375 
Q 45.015625 0.34375 40.984375 -0.53125 
Q 36.96875 -1.421875 32.421875 -1.421875 
Q 20.0625 -1.421875 12.78125 6.34375 
Q 5.515625 14.109375 5.515625 27.296875 
Q 5.515625 40.671875 12.859375 48.328125 
Q 20.21875 56 33.015625 56 
Q 37.15625 56 41.109375 55.140625 
Q 45.0625 54.296875 48.78125 52.59375 
z
" id="DejaVuSans-63"/>
      <path d="M 30.609375 48.390625 
Q 23.390625 48.390625 19.1875 42.75 
Q 14.984375 37.109375 14.984375 27.296875 
Q 14.984375 17.484375 19.15625 11.84375 
Q 23.34375 6.203125 30.609375 6.203125 
Q 37.796875 6.203125 41.984375 11.859375 
Q 46.1875 17.53125 46.1875 27.296875 
Q 46.1875 37.015625 41.984375 42.703125 
Q 37.796875 48.390625 30.609375 48.390625 
z
M 30.609375 56 
Q 42.328125 56 49.015625 48.375 
Q 55.71875 40.765625 55.71875 27.296875 
Q 55.71875 13.875 49.015625 6.21875 
Q 42.328125 -1.421875 30.609375 -1.421875 
Q 18.84375 -1.421875 12.171875 6.21875 
Q 5.515625 13.875 5.515625 27.296875 
Q 5.515625 40.765625 12.171875 48.375 
Q 18.84375 56 30.609375 56 
z
" id="DejaVuSans-6f"/>
      <path d="M 4.890625 31.390625 
L 31.203125 31.390625 
L 31.203125 23.390625 
L 4.890625 23.390625 
z
" id="DejaVuSans-2d"/>
      <path d="M 9.078125 75.984375 
L 18.109375 75.984375 
L 18.109375 31.109375 
L 44.921875 54.6875 
L 56.390625 54.6875 
L 27.390625 29.109375 
L 57.625 0 
L 45.90625 0 
L 18.109375 26.703125 
L 18.109375 0 
L 9.078125 0 
z
" id="DejaVuSans-6b"/>
      <path d="M 54.890625 33.015625 
L 54.890625 0 
L 45.90625 0 
L 45.90625 32.71875 
Q 45.90625 40.484375 42.875 44.328125 
Q 39.84375 48.1875 33.796875 48.1875 
Q 26.515625 48.1875 22.3125 43.546875 
Q 18.109375 38.921875 18.109375 30.90625 
L 18.109375 0 
L 9.078125 0 
L 9.078125 75.984375 
L 18.109375 75.984375 
L 18.109375 46.1875 
Q 21.34375 51.125 25.703125 53.5625 
Q 30.078125 56 35.796875 56 
Q 45.21875 56 50.046875 50.171875 
Q 54.890625 44.34375 54.890625 33.015625 
z
" id="DejaVuSans-68"/>
     </defs>
     <g transform="translate(21.624063 338.025219)rotate(-90)scale(0.14 -0.14)">
      <use xlink:href="#DejaVuSans-4e"/>
      <use x="74.804688" xlink:href="#DejaVuSans-65"/>
      <use x="136.328125" xlink:href="#DejaVuSans-67"/>
      <use x="199.804688" xlink:href="#DejaVuSans-61"/>
      <use x="261.083984" xlink:href="#DejaVuSans-74"/>
      <use x="300.292969" xlink:href="#DejaVuSans-69"/>
      <use x="328.076172" xlink:href="#DejaVuSans-76"/>
      <use x="387.255859" xlink:href="#DejaVuSans-65"/>
      <use x="448.779297" xlink:href="#DejaVuSans-20"/>
      <use x="480.566406" xlink:href="#DejaVuSans-70"/>
      <use x="544.042969" xlink:href="#DejaVuSans-72"/>
      <use x="585.125" xlink:href="#DejaVuSans-65"/>
      <use x="646.648438" xlink:href="#DejaVuSans-64"/>
      <use x="710.125" xlink:href="#DejaVuSans-69"/>
      <use x="737.908203" xlink:href="#DejaVuSans-63"/>
      <use x="792.888672" xlink:href="#DejaVuSans-74"/>
      <use x="832.097656" xlink:href="#DejaVuSans-69"/>
      <use x="859.880859" xlink:href="#DejaVuSans-76"/>
      <use x="919.060547" xlink:href="#DejaVuSans-65"/>
      <use x="980.583984" xlink:href="#DejaVuSans-20"/>
      <use x="1012.371094" xlink:href="#DejaVuSans-6c"/>
      <use x="1040.154297" xlink:href="#DejaVuSans-6f"/>
      <use x="1101.335938" xlink:href="#DejaVuSans-67"/>
      <use x="1164.8125" xlink:href="#DejaVuSans-2d"/>
      <use x="1200.896484" xlink:href="#DejaVuSans-6c"/>
      <use x="1228.679688" xlink:href="#DejaVuSans-69"/>
      <use x="1256.462891" xlink:href="#DejaVuSans-6b"/>
      <use x="1314.326172" xlink:href="#DejaVuSans-65"/>
      <use x="1375.849609" xlink:href="#DejaVuSans-6c"/>
      <use x="1403.632812" xlink:href="#DejaVuSans-69"/>
      <use x="1431.416016" xlink:href="#DejaVuSans-68"/>
      <use x="1494.794922" xlink:href="#DejaVuSans-6f"/>
      <use x="1555.976562" xlink:href="#DejaVuSans-6f"/>
      <use x="1617.158203" xlink:href="#DejaVuSans-64"/>
     </g>
    </g>
   </g>
   <g id="line2d_33">
    <path clip-path="url(#p146a803275)" d="M 57.8 147.623131 
L 135.068571 167.405933 
L 212.337143 187.442063 
L 289.605714 199.780667 
L 366.874286 208.574878 
L 444.142857 213.318122 
L 521.411429 215.956717 
L 598.68 217.137579 
" style="fill:none;stroke:#000000;stroke-linecap:square;stroke-width:2;"/>
   </g>
   <g id="line2d_34">
    <path clip-path="url(#p146a803275)" d="M 57.8 265.387942 
L 135.068571 254.622081 
L 212.337143 244.057709 
L 289.605714 236.10947 
L 366.874286 228.132956 
L 444.142857 224.458044 
L 521.411429 221.515317 
L 598.68 219.493328 
" style="fill:none;stroke:#ff0000;stroke-linecap:square;stroke-width:2;"/>
   </g>
   <g id="line2d_35">
    <path clip-path="url(#p146a803275)" d="M 57.8 131.117962 
L 135.068571 159.163287 
L 212.337143 184.514239 
L 289.605714 198.74038 
L 366.874286 208.286435 
L 444.142857 213.239759 
L 521.411429 215.937729 
L 598.68 217.132024 
" style="fill:none;stroke:#000000;stroke-dasharray:7.4,3.2;stroke-dashoffset:0;stroke-width:2;"/>
   </g>
   <g id="line2d_36">
    <path clip-path="url(#p146a803275)" d="M 57.8 307.765179 
L 135.068571 275.451484 
L 212.337143 252.453013 
L 289.605714 239.105717 
L 366.874286 228.994988 
L 444.142857 224.717254 
L 521.411429 221.581846 
L 598.68 219.506035 
" style="fill:none;stroke:#ff0000;stroke-dasharray:7.4,3.2;stroke-dashoffset:0;stroke-width:2;"/>
   </g>
   <g id="line2d_37">
    <path clip-path="url(#p146a803275)" d="M 57.8 47.088727 
L 135.068571 129.168664 
L 212.337143 175.327078 
L 289.605714 196.482436 
L 366.874286 207.606021 
L 444.142857 213.054311 
L 521.411429 215.887835 
L 598.68 217.125963 
" style="fill:none;stroke:#000000;stroke-dasharray:2,3.3;stroke-dashoffset:0;stroke-width:2;"/>
   </g>
   <g id="line2d_38">
    <path clip-path="url(#p146a803275)" d="M 57.8 393.663273 
L 135.068571 304.826797 
L 212.337143 261.346634 
L 289.605714 241.548267 
L 366.874286 229.650687 
L 444.142857 224.881378 
L 521.411429 221.623118 
L 598.68 219.516513 
" style="fill:none;stroke:#ff0000;stroke-dasharray:2,3.3;stroke-dashoffset:0;stroke-width:2;"/>
   </g>
   <g id="patch_3">
    <path d="M 57.8 410.992 
L 57.8 29.76 
" style="fill:none;stroke:#000000;stroke-linecap:square;stroke-linejoin:miter;stroke-width:0.8;"/>
   </g>
   <g id="patch_4">
    <path d="M 598.68 410.992 
L 598.68 29.76 
" style="fill:none;stroke:#000000;stroke-linecap:square;stroke-linejoin:miter;stroke-width:0.8;"/>
   </g>
   <g id="patch_5">
    <path d="M 57.8 410.992 
L 598.68 410.992 
" style="fill:none;stroke:#000000;stroke-linecap:square;stroke-linejoin:miter;stroke-width:0.8;"/>
   </g>
   <g id="patch_6">
    <path d="M 57.8 29.76 
L 598.68 29.76 
" style="fill:none;stroke:#000000;stroke-linecap:square;stroke-linejoin:miter;stroke-width:0.8;"/>
   </g>
   <g id="text_11">
    <!-- Unknown Normal mean experiment -->
    <defs>
     <path d="M 8.6875 72.90625 
L 18.609375 72.90625 
L 18.609375 28.609375 
Q 18.609375 16.890625 22.84375 11.734375 
Q 27.09375 6.59375 36.625 6.59375 
Q 46.09375 6.59375 50.34375 11.734375 
Q 54.59375 16.890625 54.59375 28.609375 
L 54.59375 72.90625 
L 64.5 72.90625 
L 64.5 27.390625 
Q 64.5 13.140625 57.4375 5.859375 
Q 50.390625 -1.421875 36.625 -1.421875 
Q 22.796875 -1.421875 15.734375 5.859375 
Q 8.6875 13.140625 8.6875 27.390625 
z
" id="DejaVuSans-55"/>
     <path d="M 54.890625 33.015625 
L 54.890625 0 
L 45.90625 0 
L 45.90625 32.71875 
Q 45.90625 40.484375 42.875 44.328125 
Q 39.84375 48.1875 33.796875 48.1875 
Q 26.515625 48.1875 22.3125 43.546875 
Q 18.109375 38.921875 18.109375 30.90625 
L 18.109375 0 
L 9.078125 0 
L 9.078125 54.6875 
L 18.109375 54.6875 
L 18.109375 46.1875 
Q 21.34375 51.125 25.703125 53.5625 
Q 30.078125 56 35.796875 56 
Q 45.21875 56 50.046875 50.171875 
Q 54.890625 44.34375 54.890625 33.015625 
z
" id="DejaVuSans-6e"/>
     <path d="M 4.203125 54.6875 
L 13.1875 54.6875 
L 24.421875 12.015625 
L 35.59375 54.6875 
L 46.1875 54.6875 
L 57.421875 12.015625 
L 68.609375 54.6875 
L 77.59375 54.6875 
L 63.28125 0 
L 52.6875 0 
L 40.921875 44.828125 
L 29.109375 0 
L 18.5 0 
z
" id="DejaVuSans-77"/>
     <path d="M 54.890625 54.6875 
L 35.109375 28.078125 
L 55.90625 0 
L 45.3125 0 
L 29.390625 21.484375 
L 13.484375 0 
L 2.875 0 
L 24.125 28.609375 
L 4.6875 54.6875 
L 15.28125 54.6875 
L 29.78125 35.203125 
L 44.28125 54.6875 
z
" id="DejaVuSans-78"/>
    </defs>
    <g transform="translate(176.700938 23.76)scale(0.17 -0.17)">
     <use xlink:href="#DejaVuSans-55"/>
     <use x="73.193359" xlink:href="#DejaVuSans-6e"/>
     <use x="136.572266" xlink:href="#DejaVuSans-6b"/>
     <use x="194.482422" xlink:href="#DejaVuSans-6e"/>
     <use x="257.861328" xlink:href="#DejaVuSans-6f"/>
     <use x="319.042969" xlink:href="#DejaVuSans-77"/>
     <use x="400.830078" xlink:href="#DejaVuSans-6e"/>
     <use x="464.208984" xlink:href="#DejaVuSans-20"/>
     <use x="495.996094" xlink:href="#DejaVuSans-4e"/>
     <use x="570.800781" xlink:href="#DejaVuSans-6f"/>
     <use x="631.982422" xlink:href="#DejaVuSans-72"/>
     <use x="673.080078" xlink:href="#DejaVuSans-6d"/>
     <use x="770.492188" xlink:href="#DejaVuSans-61"/>
     <use x="831.771484" xlink:href="#DejaVuSans-6c"/>
     <use x="859.554688" xlink:href="#DejaVuSans-20"/>
     <use x="891.341797" xlink:href="#DejaVuSans-6d"/>
     <use x="988.753906" xlink:href="#DejaVuSans-65"/>
     <use x="1050.277344" xlink:href="#DejaVuSans-61"/>
     <use x="1111.556641" xlink:href="#DejaVuSans-6e"/>
     <use x="1174.935547" xlink:href="#DejaVuSans-20"/>
     <use x="1206.722656" xlink:href="#DejaVuSans-65"/>
     <use x="1268.230469" xlink:href="#DejaVuSans-78"/>
     <use x="1327.410156" xlink:href="#DejaVuSans-70"/>
     <use x="1390.886719" xlink:href="#DejaVuSans-65"/>
     <use x="1452.410156" xlink:href="#DejaVuSans-72"/>
     <use x="1493.523438" xlink:href="#DejaVuSans-69"/>
     <use x="1521.306641" xlink:href="#DejaVuSans-6d"/>
     <use x="1618.71875" xlink:href="#DejaVuSans-65"/>
     <use x="1680.242188" xlink:href="#DejaVuSans-6e"/>
     <use x="1743.621094" xlink:href="#DejaVuSans-74"/>
    </g>
   </g>
   <g id="legend_1">
    <g id="patch_7">
     <path d="M 449.45625 185.61375 
L 590.28 185.61375 
Q 592.68 185.61375 592.68 183.21375 
L 592.68 38.16 
Q 592.68 35.76 590.28 35.76 
L 449.45625 35.76 
Q 447.05625 35.76 447.05625 38.16 
L 447.05625 183.21375 
Q 447.05625 185.61375 449.45625 185.61375 
z
" style="fill:#ffffff;opacity:0.8;stroke:#cccccc;stroke-linejoin:miter;"/>
    </g>
    <g id="line2d_39">
     <path d="M 451.85625 49.56 
L 475.85625 49.56 
" style="fill:none;stroke:#000000;stroke-linecap:square;stroke-width:2;"/>
    </g>
    <g id="line2d_40"/>
    <g id="text_12">
     <!-- $\hat{E}$[Bayes gen] -->
     <defs>
      <path d="M -28.609375 79.984375 
L -21.390625 79.984375 
L -9.421875 61.625 
L -16.21875 61.625 
L -25 73.578125 
L -33.796875 61.625 
L -40.578125 61.625 
z
M -25 56 
z
" id="DejaVuSans-302"/>
      <path d="M 16.890625 72.90625 
L 62.984375 72.90625 
L 61.375 64.59375 
L 25.09375 64.59375 
L 20.90625 43.015625 
L 55.71875 43.015625 
L 54.109375 34.71875 
L 19.28125 34.71875 
L 14.203125 8.296875 
L 51.3125 8.296875 
L 49.703125 0 
L 2.6875 0 
z
" id="DejaVuSans-Oblique-45"/>
      <path d="M 8.59375 75.984375 
L 29.296875 75.984375 
L 29.296875 69 
L 17.578125 69 
L 17.578125 -6.203125 
L 29.296875 -6.203125 
L 29.296875 -13.1875 
L 8.59375 -13.1875 
z
" id="DejaVuSans-5b"/>
      <path d="M 19.671875 34.8125 
L 19.671875 8.109375 
L 35.5 8.109375 
Q 43.453125 8.109375 47.28125 11.40625 
Q 51.125 14.703125 51.125 21.484375 
Q 51.125 28.328125 47.28125 31.5625 
Q 43.453125 34.8125 35.5 34.8125 
z
M 19.671875 64.796875 
L 19.671875 42.828125 
L 34.28125 42.828125 
Q 41.5 42.828125 45.03125 45.53125 
Q 48.578125 48.25 48.578125 53.8125 
Q 48.578125 59.328125 45.03125 62.0625 
Q 41.5 64.796875 34.28125 64.796875 
z
M 9.8125 72.90625 
L 35.015625 72.90625 
Q 46.296875 72.90625 52.390625 68.21875 
Q 58.5 63.53125 58.5 54.890625 
Q 58.5 48.1875 55.375 44.234375 
Q 52.25 40.28125 46.1875 39.3125 
Q 53.46875 37.75 57.5 32.78125 
Q 61.53125 27.828125 61.53125 20.40625 
Q 61.53125 10.640625 54.890625 5.3125 
Q 48.25 0 35.984375 0 
L 9.8125 0 
z
" id="DejaVuSans-42"/>
      <path d="M 32.171875 -5.078125 
Q 28.375 -14.84375 24.75 -17.8125 
Q 21.140625 -20.796875 15.09375 -20.796875 
L 7.90625 -20.796875 
L 7.90625 -13.28125 
L 13.1875 -13.28125 
Q 16.890625 -13.28125 18.9375 -11.515625 
Q 21 -9.765625 23.484375 -3.21875 
L 25.09375 0.875 
L 2.984375 54.6875 
L 12.5 54.6875 
L 29.59375 11.921875 
L 46.6875 54.6875 
L 56.203125 54.6875 
z
" id="DejaVuSans-79"/>
      <path d="M 30.421875 75.984375 
L 30.421875 -13.1875 
L 9.71875 -13.1875 
L 9.71875 -6.203125 
L 21.390625 -6.203125 
L 21.390625 69 
L 9.71875 69 
L 9.71875 75.984375 
z
" id="DejaVuSans-5d"/>
     </defs>
     <g transform="translate(485.45625 53.76)scale(0.12 -0.12)">
      <use transform="translate(64.374023 30.015625)" xlink:href="#DejaVuSans-302"/>
      <use transform="translate(0 0.609375)" xlink:href="#DejaVuSans-Oblique-45"/>
      <use transform="translate(63.183594 0.609375)" xlink:href="#DejaVuSans-5b"/>
      <use transform="translate(102.197266 0.609375)" xlink:href="#DejaVuSans-42"/>
      <use transform="translate(170.800781 0.609375)" xlink:href="#DejaVuSans-61"/>
      <use transform="translate(232.080078 0.609375)" xlink:href="#DejaVuSans-79"/>
      <use transform="translate(291.259766 0.609375)" xlink:href="#DejaVuSans-65"/>
      <use transform="translate(352.783203 0.609375)" xlink:href="#DejaVuSans-73"/>
      <use transform="translate(404.882812 0.609375)" xlink:href="#DejaVuSans-20"/>
      <use transform="translate(436.669922 0.609375)" xlink:href="#DejaVuSans-67"/>
      <use transform="translate(500.146484 0.609375)" xlink:href="#DejaVuSans-65"/>
      <use transform="translate(561.669922 0.609375)" xlink:href="#DejaVuSans-6e"/>
      <use transform="translate(625.048828 0.609375)" xlink:href="#DejaVuSans-5d"/>
     </g>
    </g>
    <g id="line2d_41">
     <path d="M 451.85625 71.28 
L 475.85625 71.28 
" style="fill:none;stroke:#ff0000;stroke-linecap:square;stroke-width:2;"/>
    </g>
    <g id="line2d_42"/>
    <g id="text_13">
     <!-- $\hat{E}$[Bayes train] -->
     <g transform="translate(485.45625 75.48)scale(0.12 -0.12)">
      <use transform="translate(64.374023 30.015625)" xlink:href="#DejaVuSans-302"/>
      <use transform="translate(0 0.609375)" xlink:href="#DejaVuSans-Oblique-45"/>
      <use transform="translate(63.183594 0.609375)" xlink:href="#DejaVuSans-5b"/>
      <use transform="translate(102.197266 0.609375)" xlink:href="#DejaVuSans-42"/>
      <use transform="translate(170.800781 0.609375)" xlink:href="#DejaVuSans-61"/>
      <use transform="translate(232.080078 0.609375)" xlink:href="#DejaVuSans-79"/>
      <use transform="translate(291.259766 0.609375)" xlink:href="#DejaVuSans-65"/>
      <use transform="translate(352.783203 0.609375)" xlink:href="#DejaVuSans-73"/>
      <use transform="translate(404.882812 0.609375)" xlink:href="#DejaVuSans-20"/>
      <use transform="translate(436.669922 0.609375)" xlink:href="#DejaVuSans-74"/>
      <use transform="translate(475.878906 0.609375)" xlink:href="#DejaVuSans-72"/>
      <use transform="translate(516.992188 0.609375)" xlink:href="#DejaVuSans-61"/>
      <use transform="translate(578.271484 0.609375)" xlink:href="#DejaVuSans-69"/>
      <use transform="translate(606.054688 0.609375)" xlink:href="#DejaVuSans-6e"/>
      <use transform="translate(669.433594 0.609375)" xlink:href="#DejaVuSans-5d"/>
     </g>
    </g>
    <g id="line2d_43">
     <path d="M 451.85625 93 
L 475.85625 93 
" style="fill:none;stroke:#000000;stroke-dasharray:7.4,3.2;stroke-dashoffset:0;stroke-width:2;"/>
    </g>
    <g id="line2d_44"/>
    <g id="text_14">
     <!-- $\hat{E}$[MAP gen] -->
     <defs>
      <path d="M 9.8125 72.90625 
L 24.515625 72.90625 
L 43.109375 23.296875 
L 61.8125 72.90625 
L 76.515625 72.90625 
L 76.515625 0 
L 66.890625 0 
L 66.890625 64.015625 
L 48.09375 14.015625 
L 38.1875 14.015625 
L 19.390625 64.015625 
L 19.390625 0 
L 9.8125 0 
z
" id="DejaVuSans-4d"/>
      <path d="M 34.1875 63.1875 
L 20.796875 26.90625 
L 47.609375 26.90625 
z
M 28.609375 72.90625 
L 39.796875 72.90625 
L 67.578125 0 
L 57.328125 0 
L 50.6875 18.703125 
L 17.828125 18.703125 
L 11.1875 0 
L 0.78125 0 
z
" id="DejaVuSans-41"/>
      <path d="M 19.671875 64.796875 
L 19.671875 37.40625 
L 32.078125 37.40625 
Q 38.96875 37.40625 42.71875 40.96875 
Q 46.484375 44.53125 46.484375 51.125 
Q 46.484375 57.671875 42.71875 61.234375 
Q 38.96875 64.796875 32.078125 64.796875 
z
M 9.8125 72.90625 
L 32.078125 72.90625 
Q 44.34375 72.90625 50.609375 67.359375 
Q 56.890625 61.8125 56.890625 51.125 
Q 56.890625 40.328125 50.609375 34.8125 
Q 44.34375 29.296875 32.078125 29.296875 
L 19.671875 29.296875 
L 19.671875 0 
L 9.8125 0 
z
" id="DejaVuSans-50"/>
     </defs>
     <g transform="translate(485.45625 97.2)scale(0.12 -0.12)">
      <use transform="translate(64.374023 30.015625)" xlink:href="#DejaVuSans-302"/>
      <use transform="translate(0 0.609375)" xlink:href="#DejaVuSans-Oblique-45"/>
      <use transform="translate(63.183594 0.609375)" xlink:href="#DejaVuSans-5b"/>
      <use transform="translate(102.197266 0.609375)" xlink:href="#DejaVuSans-4d"/>
      <use transform="translate(188.476562 0.609375)" xlink:href="#DejaVuSans-41"/>
      <use transform="translate(256.884766 0.609375)" xlink:href="#DejaVuSans-50"/>
      <use transform="translate(317.1875 0.609375)" xlink:href="#DejaVuSans-20"/>
      <use transform="translate(348.974609 0.609375)" xlink:href="#DejaVuSans-67"/>
      <use transform="translate(412.451172 0.609375)" xlink:href="#DejaVuSans-65"/>
      <use transform="translate(473.974609 0.609375)" xlink:href="#DejaVuSans-6e"/>
      <use transform="translate(537.353516 0.609375)" xlink:href="#DejaVuSans-5d"/>
     </g>
    </g>
    <g id="line2d_45">
     <path d="M 451.85625 113.904375 
L 475.85625 113.904375 
" style="fill:none;stroke:#ff0000;stroke-dasharray:7.4,3.2;stroke-dashoffset:0;stroke-width:2;"/>
    </g>
    <g id="line2d_46"/>
    <g id="text_15">
     <!-- $\hat{E}$[MAP train] -->
     <g transform="translate(485.45625 118.104375)scale(0.12 -0.12)">
      <use transform="translate(64.374023 30.015625)" xlink:href="#DejaVuSans-302"/>
      <use transform="translate(0 0.609375)" xlink:href="#DejaVuSans-Oblique-45"/>
      <use transform="translate(63.183594 0.609375)" xlink:href="#DejaVuSans-5b"/>
      <use transform="translate(102.197266 0.609375)" xlink:href="#DejaVuSans-4d"/>
      <use transform="translate(188.476562 0.609375)" xlink:href="#DejaVuSans-41"/>
      <use transform="translate(256.884766 0.609375)" xlink:href="#DejaVuSans-50"/>
      <use transform="translate(317.1875 0.609375)" xlink:href="#DejaVuSans-20"/>
      <use transform="translate(348.974609 0.609375)" xlink:href="#DejaVuSans-74"/>
      <use transform="translate(388.183594 0.609375)" xlink:href="#DejaVuSans-72"/>
      <use transform="translate(429.296875 0.609375)" xlink:href="#DejaVuSans-61"/>
      <use transform="translate(490.576172 0.609375)" xlink:href="#DejaVuSans-69"/>
      <use transform="translate(518.359375 0.609375)" xlink:href="#DejaVuSans-6e"/>
      <use transform="translate(581.738281 0.609375)" xlink:href="#DejaVuSans-5d"/>
     </g>
    </g>
    <g id="line2d_47">
     <path d="M 451.85625 135.6 
L 475.85625 135.6 
" style="fill:none;stroke:#000000;stroke-dasharray:2,3.3;stroke-dashoffset:0;stroke-width:2;"/>
    </g>
    <g id="line2d_48"/>
    <g id="text_16">
     <!-- $\hat{E}$[MLE gen] -->
     <defs>
      <path d="M 9.8125 72.90625 
L 19.671875 72.90625 
L 19.671875 8.296875 
L 55.171875 8.296875 
L 55.171875 0 
L 9.8125 0 
z
" id="DejaVuSans-4c"/>
      <path d="M 9.8125 72.90625 
L 55.90625 72.90625 
L 55.90625 64.59375 
L 19.671875 64.59375 
L 19.671875 43.015625 
L 54.390625 43.015625 
L 54.390625 34.71875 
L 19.671875 34.71875 
L 19.671875 8.296875 
L 56.78125 8.296875 
L 56.78125 0 
L 9.8125 0 
z
" id="DejaVuSans-45"/>
     </defs>
     <g transform="translate(485.45625 139.8)scale(0.12 -0.12)">
      <use transform="translate(64.374023 30.015625)" xlink:href="#DejaVuSans-302"/>
      <use transform="translate(0 0.609375)" xlink:href="#DejaVuSans-Oblique-45"/>
      <use transform="translate(63.183594 0.609375)" xlink:href="#DejaVuSans-5b"/>
      <use transform="translate(102.197266 0.609375)" xlink:href="#DejaVuSans-4d"/>
      <use transform="translate(188.476562 0.609375)" xlink:href="#DejaVuSans-4c"/>
      <use transform="translate(244.189453 0.609375)" xlink:href="#DejaVuSans-45"/>
      <use transform="translate(307.373047 0.609375)" xlink:href="#DejaVuSans-20"/>
      <use transform="translate(339.160156 0.609375)" xlink:href="#DejaVuSans-67"/>
      <use transform="translate(402.636719 0.609375)" xlink:href="#DejaVuSans-65"/>
      <use transform="translate(464.160156 0.609375)" xlink:href="#DejaVuSans-6e"/>
      <use transform="translate(527.539062 0.609375)" xlink:href="#DejaVuSans-5d"/>
     </g>
    </g>
    <g id="line2d_49">
     <path d="M 451.85625 156.504375 
L 475.85625 156.504375 
" style="fill:none;stroke:#ff0000;stroke-dasharray:2,3.3;stroke-dashoffset:0;stroke-width:2;"/>
    </g>
    <g id="line2d_50"/>
    <g id="text_17">
     <!-- $\hat{E}$[MLE train] -->
     <g transform="translate(485.45625 160.704375)scale(0.12 -0.12)">
      <use transform="translate(64.374023 30.015625)" xlink:href="#DejaVuSans-302"/>
      <use transform="translate(0 0.609375)" xlink:href="#DejaVuSans-Oblique-45"/>
      <use transform="translate(63.183594 0.609375)" xlink:href="#DejaVuSans-5b"/>
      <use transform="translate(102.197266 0.609375)" xlink:href="#DejaVuSans-4d"/>
      <use transform="translate(188.476562 0.609375)" xlink:href="#DejaVuSans-4c"/>
      <use transform="translate(244.189453 0.609375)" xlink:href="#DejaVuSans-45"/>
      <use transform="translate(307.373047 0.609375)" xlink:href="#DejaVuSans-20"/>
      <use transform="translate(339.160156 0.609375)" xlink:href="#DejaVuSans-74"/>
      <use transform="translate(378.369141 0.609375)" xlink:href="#DejaVuSans-72"/>
      <use transform="translate(419.482422 0.609375)" xlink:href="#DejaVuSans-61"/>
      <use transform="translate(480.761719 0.609375)" xlink:href="#DejaVuSans-69"/>
      <use transform="translate(508.544922 0.609375)" xlink:href="#DejaVuSans-6e"/>
      <use transform="translate(571.923828 0.609375)" xlink:href="#DejaVuSans-5d"/>
     </g>
    </g>
    <g id="patch_8">
     <path d="M 451.85625 178.318125 
L 475.85625 178.318125 
L 475.85625 169.918125 
L 451.85625 169.918125 
z
" style="fill:#ffa500;opacity:0.25;"/>
    </g>
    <g id="text_18">
     <!-- Bayes overfitting -->
     <defs>
      <path d="M 37.109375 75.984375 
L 37.109375 68.5 
L 28.515625 68.5 
Q 23.6875 68.5 21.796875 66.546875 
Q 19.921875 64.59375 19.921875 59.515625 
L 19.921875 54.6875 
L 34.71875 54.6875 
L 34.71875 47.703125 
L 19.921875 47.703125 
L 19.921875 0 
L 10.890625 0 
L 10.890625 47.703125 
L 2.296875 47.703125 
L 2.296875 54.6875 
L 10.890625 54.6875 
L 10.890625 58.5 
Q 10.890625 67.625 15.140625 71.796875 
Q 19.390625 75.984375 28.609375 75.984375 
z
" id="DejaVuSans-66"/>
     </defs>
     <g transform="translate(485.45625 178.318125)scale(0.12 -0.12)">
      <use xlink:href="#DejaVuSans-42"/>
      <use x="68.603516" xlink:href="#DejaVuSans-61"/>
      <use x="129.882812" xlink:href="#DejaVuSans-79"/>
      <use x="189.0625" xlink:href="#DejaVuSans-65"/>
      <use x="250.585938" xlink:href="#DejaVuSans-73"/>
      <use x="302.685547" xlink:href="#DejaVuSans-20"/>
      <use x="334.472656" xlink:href="#DejaVuSans-6f"/>
      <use x="395.654297" xlink:href="#DejaVuSans-76"/>
      <use x="454.833984" xlink:href="#DejaVuSans-65"/>
      <use x="516.357422" xlink:href="#DejaVuSans-72"/>
      <use x="557.470703" xlink:href="#DejaVuSans-66"/>
      <use x="592.675781" xlink:href="#DejaVuSans-69"/>
      <use x="620.458984" xlink:href="#DejaVuSans-74"/>
      <use x="659.667969" xlink:href="#DejaVuSans-74"/>
      <use x="698.876953" xlink:href="#DejaVuSans-69"/>
      <use x="726.660156" xlink:href="#DejaVuSans-6e"/>
      <use x="790.039062" xlink:href="#DejaVuSans-67"/>
     </g>
    </g>
   </g>
  </g>
 </g>
 <defs>
  <clipPath id="p146a803275">
   <rect height="381.232" width="540.88" x="57.8" y="29.76"/>
  </clipPath>
 </defs>
</svg>
